<svg xmlns="http://www.w3.org/2000/svg" viewBox="0 0 1200 630" width="1200" height="630">
  <defs>
    <linearGradient id="bg" x1="0" y1="0" x2="1" y2="1">
      <stop offset="0" stop-color="#161a20"/>
      <stop offset="1" stop-color="#20262f"/>
    </linearGradient>
  </defs>
  <rect width="1200" height="630" fill="url(#bg)"/>
  <g transform="translate(80,180)">
    <text x="0" y="0" font-family="Inter, Arial, sans-serif" font-size="86" font-weight="800" fill="#F2F5F8">Oto Rehberim</text>
    <text x="0" y="80" font-family="Inter, Arial, sans-serif" font-size="34" fill="#7CFFB2">Araç Bakım · Lastik · Akü · Yakıt Maliyeti</text>
    <text x="0" y="150" font-family="Inter, Arial, sans-serif" font-size="26" fill="#A9B3BF">Kayıt yok · Ücretsiz · Tamamen tarayıcınızda çalışır</text>
  </g>
  <g transform="translate(820,300)" fill="none" stroke="#7CFFB2" stroke-width="6" stroke-linejoin="round">
    <path d="M0 80l16-52a24 24 0 0 1 23-16h122a24 24 0 0 1 23 16l16 52v40a8 8 0 0 1-8 8h-16a8 8 0 0 1-8-8v-12H32v12a8 8 0 0 1-8 8H8a8 8 0 0 1-8-8z"/>
    <circle cx="40" cy="90" r="12" fill="#7CFFB2"/>
    <circle cx="160" cy="90" r="12" fill="#7CFFB2"/>
  </g>
</svg>
